<svg xmlns="http://www.w3.org/2000/svg" width="180" height="180" viewBox="0 0 180 180">
  <rect x="0" y="0" width="180" height="180" rx="40" fill="#2C4A3E"/>

  <!-- 四隅：大きめタイル -->
  <rect x="12" y="12" width="30" height="30" rx="4" fill="#3D6B5C" opacity="0.9"/>
  <rect x="138" y="12" width="30" height="30" rx="4" fill="#3D6B5C" opacity="0.9"/>
  <rect x="12" y="138" width="30" height="30" rx="4" fill="#3D6B5C" opacity="0.9"/>
  <rect x="138" y="138" width="30" height="30" rx="4" fill="#3D6B5C" opacity="0.9"/>

  <!-- 辺中央：ゴールドタイル -->
  <rect x="75" y="12" width="30" height="20" rx="3" fill="#C9A84C" opacity="0.7"/>
  <rect x="75" y="148" width="30" height="20" rx="3" fill="#C9A84C" opacity="0.7"/>
  <rect x="12" y="75" width="20" height="30" rx="3" fill="#C9A84C" opacity="0.7"/>
  <rect x="148" y="75" width="20" height="30" rx="3" fill="#C9A84C" opacity="0.7"/>

  <!-- 斜め中間：小タイル -->
  <rect x="46" y="14" width="18" height="18" rx="3" fill="#C9A84C" opacity="0.45"/>
  <rect x="116" y="14" width="18" height="18" rx="3" fill="#C9A84C" opacity="0.45"/>
  <rect x="46" y="148" width="18" height="18" rx="3" fill="#C9A84C" opacity="0.45"/>
  <rect x="116" y="148" width="18" height="18" rx="3" fill="#C9A84C" opacity="0.45"/>
  <rect x="14" y="46" width="18" height="18" rx="3" fill="#C9A84C" opacity="0.45"/>
  <rect x="148" y="46" width="18" height="18" rx="3" fill="#C9A84C" opacity="0.45"/>
  <rect x="14" y="116" width="18" height="18" rx="3" fill="#C9A84C" opacity="0.45"/>
  <rect x="148" y="116" width="18" height="18" rx="3" fill="#C9A84C" opacity="0.45"/>

  <!-- 中文字 -->
  <text
    x="90" y="125"
    text-anchor="middle"
    font-family="'Hiragino Mincho ProN','Yu Mincho','SimSun',serif"
    font-size="88"
    font-weight="700"
    fill="#C9A84C"
  >中</text>
</svg>
